<?xml version="1.0" encoding="UTF-8"?> <!-- Generator: Adobe Illustrator 25.0.1, SVG Export Plug-In . SVG Version: 6.00 Build 0) --> <svg xmlns="http://www.w3.org/2000/svg" xmlns:xlink="http://www.w3.org/1999/xlink" id="Camada_1" x="0px" y="0px" viewBox="0 0 362 362" style="enable-background:new 0 0 362 362;" xml:space="preserve"> <style type="text/css"> .st0{opacity:0.5;clip-path:url(#SVGID_2_);} .st1{fill:#41CC79;} .st2{fill:url(#Contour_1_);} .st3{fill:#8BC5FF;} .st4{fill:#FFFFFF;} .st5{fill:url(#Contour_3_);} .st6{fill:url(#Contour_4_);} .st7{fill:url(#Contour_5_);} .st8{fill:url(#Contour_6_);} .st9{fill:url(#Contour_11_);} .st10{fill:url(#Contour_12_);} .st11{fill:url(#Contour_13_);} .st12{fill:url(#Contour_14_);} .st13{fill:url(#Contour_15_);} .st14{fill:url(#Contour_16_);} .st15{fill:url(#Contour_17_);} .st16{fill:url(#Contour_18_);} .st17{fill:url(#Contour_19_);} .st18{fill:url(#Contour_20_);} .st19{fill:url(#Contour_21_);} .st20{fill:url(#Contour_22_);} .st21{fill:url(#Contour_23_);} .st22{fill:url(#Contour_24_);} .st23{fill:url(#Contour_25_);} .st24{fill:url(#Contour_26_);} .st25{fill:url(#Contour_27_);} .st26{fill:url(#Contour_28_);} .st27{fill:url(#Contour_29_);} .st28{fill:url(#Contour_30_);} .st29{fill:url(#Contour_31_);} .st30{fill:url(#Contour_32_);} .st31{fill:url(#Contour_33_);} .st32{fill:url(#Contour_34_);} .st33{fill:url(#Contour_35_);} .st34{fill:url(#Contour_36_);} .st35{fill:url(#Contour_37_);} .st36{fill:url(#Contour_38_);} .st37{fill:url(#Contour_43_);} .st38{fill:url(#Contour_44_);} .st39{fill:url(#Contour_45_);} .st40{fill:url(#Contour_46_);} .st41{fill:url(#Contour_47_);} .st42{fill:url(#Contour_48_);} .st43{fill:url(#Contour_49_);} .st44{fill:url(#Contour_50_);} .st45{fill:url(#Contour_51_);} .st46{fill:url(#Contour_52_);} .st47{fill:url(#Contour_53_);} .st48{fill:url(#Contour_54_);} .st49{fill:url(#Contour_55_);} .st50{fill:url(#Contour_56_);} .st51{fill:url(#Contour_57_);} .st52{fill:url(#Contour_58_);} .st53{fill:url(#Contour_66_);} .st54{fill:url(#Contour_67_);} .st55{fill:url(#Contour_68_);} .st56{fill:url(#Contour_69_);} .st57{fill:url(#Contour_70_);} .st58{fill:url(#Group_1_);} .st59{fill:url(#Contour_71_);} .st60{fill:url(#Contour_72_);} .st61{fill:url(#Contour_73_);} .st62{fill:url(#Contour_74_);} .st63{fill:url(#Contour_75_);} .st64{fill:url(#Contour_76_);} .st65{fill:url(#Contour_116_);} .st66{fill:url(#Contour_117_);} .st67{fill:url(#Contour_118_);} .st68{fill:url(#Contour_119_);} .st69{fill:url(#Contour_120_);} .st70{fill:url(#Contour_121_);} .st71{fill:url(#Contour_122_);} .st72{fill:url(#Contour_123_);} .st73{fill:url(#Contour_124_);} .st74{fill:url(#Contour_129_);} .st75{fill:url(#Contour_135_);} .st76{fill:url(#Contour_143_);} .st77{fill:url(#Contour_301_);} .st78{fill:url(#Contour_302_);} .st79{fill:url(#Contour_378_);} .st80{fill:url(#Contour_437_);} .st81{fill:none;} .st82{fill:url(#Contour_438_);} .st83{fill:url(#Contour_439_);} .st84{fill:url(#Contour_440_);} .st85{fill:url(#Contour_441_);} .st86{fill:url(#Contour_442_);} .st87{fill:url(#Contour_468_);} .st88{fill:url(#Contour_469_);} .st89{fill:url(#Contour_470_);} .st90{fill:url(#Contour_471_);} .st91{fill:url(#Contour_472_);} .st92{fill:url(#Contour_473_);} .st93{fill:url(#Contour_474_);} .st94{fill:url(#Contour_475_);} .st95{fill:url(#Contour_476_);} .st96{fill:url(#Contour_477_);} .st97{fill:url(#Contour_478_);} .st98{fill:url(#Contour_479_);} .st99{fill:url(#Contour_480_);} .st100{fill:url(#Contour_481_);} .st101{fill:url(#Contour_482_);} .st102{fill:url(#Contour_483_);} .st103{fill:url(#Contour_484_);} .st104{fill:url(#Contour_485_);} .st105{fill:url(#Contour_486_);} .st106{fill:url(#Contour_487_);} .st107{fill:url(#Contour_488_);} .st108{fill:url(#Contour_489_);} .st109{fill:url(#Contour_490_);} .st110{fill:url(#Contour_491_);} .st111{fill:url(#Contour_492_);} .st112{fill:url(#Contour_493_);} .st113{fill:url(#Contour_494_);} .st114{fill:url(#Contour_495_);} .st115{fill:url(#Contour_496_);} .st116{fill:url(#Contour_497_);} .st117{fill:url(#Contour_498_);} .st118{fill:url(#Contour_499_);} .st119{fill:url(#Contour_500_);} .st120{fill:url(#Contour_501_);} .st121{fill:url(#Contour_502_);} .st122{fill:url(#Contour_503_);} .st123{fill:url(#Contour_504_);} .st124{fill:url(#Contour_505_);} .st125{fill:url(#Contour_506_);} .st126{fill:url(#Contour_507_);} .st127{fill:url(#Contour_508_);} .st128{fill:url(#Contour_509_);} .st129{fill:url(#Contour_510_);} .st130{fill:url(#Contour_511_);} .st131{fill:url(#Contour_512_);} .st132{fill:url(#Contour_513_);} .st133{fill:url(#Contour_514_);} .st134{fill:url(#Contour_515_);} .st135{fill:url(#Contour_516_);} .st136{fill:url(#Contour_519_);} .st137{fill:url(#Contour_522_);} .st138{fill:url(#Contour_524_);} .st139{fill:url(#Contour_526_);} .st140{fill:url(#Contour_552_);} .st141{fill:url(#Contour_558_);} .st142{fill:url(#Contour_559_);} .st143{fill:url(#Contour_561_);} .st144{fill:url(#Contour_562_);} .st145{fill:url(#Contour_563_);} .st146{fill:url(#Contour_564_);} .st147{fill:url(#Contour_566_);} .st148{fill:url(#Contour_569_);} .st149{fill:url(#Contour_570_);} .st150{fill:url(#Contour_571_);} .st151{fill:url(#Contour_572_);} .st152{fill:url(#Contour_573_);} .st153{fill:url(#Contour_574_);} .st154{fill:url(#Contour_575_);} .st155{fill:url(#Contour_576_);} .st156{fill:url(#Contour_577_);} .st157{fill:url(#Contour_578_);} .st158{fill:url(#Contour_579_);} .st159{fill:url(#Contour_580_);} .st160{fill:url(#Contour_581_);} .st161{fill:url(#Contour_582_);} .st162{fill:url(#Contour_583_);} .st163{fill:url(#Contour_584_);} .st164{fill:url(#Contour_585_);} .st165{fill:url(#Contour_586_);} .st166{fill:url(#Contour_587_);} .st167{fill:url(#Contour_588_);} .st168{fill:url(#Contour_589_);} .st169{fill:url(#Contour_590_);} .st170{fill:url(#Contour_591_);} .st171{fill:url(#Contour_592_);} .st172{fill:url(#Contour_593_);} .st173{fill:url(#Contour_594_);} .st174{fill:url(#Contour_595_);} .st175{fill:url(#Contour_596_);} .st176{fill:url(#Contour_597_);} .st177{fill:url(#Contour_598_);} .st178{fill:url(#Contour_599_);} .st179{fill:url(#Contour_600_);} .st180{fill:url(#Contour_601_);} .st181{fill:url(#Contour_602_);} .st182{fill:url(#Contour_603_);} .st183{fill:url(#Contour_604_);} .st184{fill:url(#Contour_605_);} .st185{fill:url(#Contour_617_);} .st186{fill:url(#Contour_618_);} .st187{fill:url(#Contour_620_);} .st188{fill:url(#Contour_621_);} .st189{fill:url(#Contour_622_);} .st190{fill:url(#Contour_624_);} .st191{fill:url(#Contour_625_);} .st192{fill:url(#Contour_626_);} .st193{fill:url(#Contour_627_);} .st194{fill:url(#Contour_659_);} .st195{fill:url(#Contour_660_);} .st196{fill:url(#Contour_661_);} .st197{fill:url(#Contour_662_);} .st198{fill:url(#Contour_663_);} .st199{fill:url(#Contour_664_);} .st200{fill:url(#Contour_665_);} .st201{fill:url(#Contour_666_);} .st202{fill:url(#Contour_667_);} .st203{fill:url(#Contour_668_);} .st204{fill:url(#Contour_669_);} .st205{fill:url(#Contour_670_);} .st206{fill:url(#Contour_671_);} .st207{fill:url(#Contour_672_);} .st208{fill:url(#Contour_673_);} .st209{fill:url(#Contour_674_);} .st210{fill:url(#Contour_675_);} .st211{fill:url(#Contour_676_);} .st212{fill:url(#Contour_677_);} .st213{fill:url(#Contour_678_);} .st214{fill:url(#Contour_679_);} .st215{fill:url(#Contour_680_);} .st216{fill:url(#Contour_681_);} .st217{fill:url(#Contour_682_);} .st218{fill:url(#Contour_683_);} .st219{fill:url(#Contour_684_);} .st220{fill:url(#Contour_685_);} .st221{fill:url(#Contour_686_);} .st222{fill:url(#Contour_687_);} .st223{fill:url(#Contour_688_);} .st224{fill:url(#Contour_689_);} .st225{fill:url(#Contour_690_);} .st226{fill:url(#Contour_691_);} .st227{fill:url(#Contour_692_);} .st228{fill:url(#Contour_693_);} .st229{fill:url(#Contour_694_);} .st230{fill:url(#Contour_695_);} .st231{fill:url(#Contour_698_);} .st232{fill:url(#Contour_699_);} .st233{fill:url(#Contour_701_);} .st234{fill:url(#Contour_703_);} .st235{fill:url(#Contour_704_);} .st236{fill:url(#Contour_706_);} .st237{fill:url(#Contour_708_);} .st238{fill:url(#Contour_738_);} .st239{fill:url(#Contour_739_);} .st240{fill:url(#Contour_740_);} .st241{fill:url(#Contour_741_);} .st242{fill:url(#Contour_742_);} .st243{fill:url(#Contour_743_);} .st244{fill:url(#Contour_744_);} .st245{fill:url(#Contour_745_);} .st246{fill:url(#Contour_746_);} .st247{fill:url(#Contour_747_);} .st248{fill:url(#Contour_748_);} .st249{fill:url(#Contour_751_);} .st250{fill:url(#Contour_752_);} .st251{fill:url(#Contour_753_);} .st252{fill:url(#Contour_754_);} .st253{fill:url(#Contour_755_);} .st254{fill:url(#Contour_756_);} .st255{fill:url(#Contour_757_);} .st256{fill:url(#Contour_758_);} .st257{fill:url(#Contour_759_);} .st258{fill:url(#Contour_760_);} .st259{fill:url(#Contour_761_);} .st260{fill:url(#Contour_762_);} .st261{fill:url(#Contour_763_);} .st262{fill:url(#Contour_764_);} .st263{fill:url(#Contour_771_);} .st264{fill:url(#Contour_772_);} .st265{fill:url(#Contour_773_);} .st266{fill:url(#Contour_774_);} .st267{fill:url(#Contour_775_);} .st268{fill:url(#Contour_776_);} .st269{fill:url(#Contour_777_);} .st270{fill:url(#Contour_778_);} .st271{fill:#EFF5E6;} .st272{fill:url(#Contour_779_);} .st273{fill:url(#Contour_780_);} .st274{fill:url(#Contour_781_);} .st275{fill:url(#Contour_782_);} .st276{fill:#1E2D2F;} .st277{fill:url(#Contour_783_);} .st278{fill:url(#Contour_784_);} .st279{fill:url(#Contour_785_);} .st280{fill:url(#Contour_786_);} .st281{fill:url(#Contour_787_);} .st282{fill:url(#Contour_788_);} .st283{fill:url(#Contour_789_);} .st284{fill:url(#Contour_790_);} .st285{fill:url(#Contour_791_);} .st286{fill:url(#Contour_792_);} .st287{fill:url(#Contour_793_);} .st288{fill:url(#Contour_794_);} .st289{fill:url(#Contour_795_);} .st290{fill:url(#Contour_796_);} .st291{fill:url(#Contour_797_);} .st292{fill:url(#Contour_798_);} .st293{fill:url(#Contour_799_);} .st294{fill:url(#Contour_800_);} .st295{fill:url(#Contour_801_);} .st296{fill:url(#Contour_802_);} .st297{fill:url(#Contour_803_);} .st298{fill:url(#Contour_804_);} .st299{fill:url(#Contour_805_);} .st300{fill:url(#Contour_806_);} .st301{fill:url(#Contour_807_);} .st302{fill:url(#Contour_808_);} .st303{fill:url(#Contour_809_);} .st304{fill:url(#Contour_810_);} .st305{fill:url(#Contour_811_);} .st306{fill:url(#Contour_812_);} .st307{fill:url(#Contour_813_);} .st308{fill:url(#Contour_814_);} .st309{fill:url(#Contour_815_);} .st310{fill:url(#Contour_816_);} .st311{fill:url(#Contour_817_);} .st312{fill:url(#Contour_818_);} .st313{fill:url(#Contour_819_);} .st314{fill:url(#Contour_820_);} .st315{fill:url(#Contour_821_);} .st316{fill:url(#Contour_822_);} .st317{fill:url(#Contour_823_);} .st318{fill:url(#Contour_824_);} .st319{fill:url(#Contour_825_);} .st320{fill:url(#Contour_826_);} .st321{fill:url(#Contour_827_);} .st322{fill:url(#Contour_828_);} .st323{fill:url(#Contour_829_);} .st324{fill:url(#Contour_830_);} .st325{fill:url(#Contour_831_);} .st326{fill:url(#Contour_832_);} .st327{fill:url(#Contour_833_);} .st328{fill:url(#Contour_834_);} .st329{fill:url(#Contour_835_);} .st330{fill:url(#Contour_836_);} .st331{fill:url(#Contour_837_);} .st332{fill:url(#Contour_838_);} .st333{fill:url(#Contour_839_);} .st334{fill:url(#Contour_840_);} .st335{fill:url(#Contour_841_);} .st336{fill:url(#Contour_842_);} .st337{fill:url(#Contour_843_);} .st338{fill:url(#Contour_844_);} .st339{fill:url(#Contour_845_);} .st340{fill:url(#Contour_846_);} .st341{fill:url(#Contour_847_);} .st342{fill:url(#Contour_848_);} .st343{fill:url(#Contour_849_);} .st344{fill:url(#Contour_850_);} .st345{fill:url(#Contour_851_);} .st346{fill:url(#Contour_852_);} .st347{fill:url(#Contour_853_);} .st348{fill:url(#Contour_854_);} .st349{fill:url(#Contour_855_);} .st350{fill:url(#Contour_856_);} .st351{fill:url(#Contour_857_);} .st352{fill:url(#Contour_858_);} .st353{fill:url(#Contour_859_);} .st354{fill:url(#Contour_860_);} .st355{fill:url(#Contour_861_);} .st356{fill:url(#Contour_862_);} .st357{fill:url(#Contour_863_);} .st358{fill:url(#Contour_864_);} .st359{fill:url(#Contour_865_);} .st360{fill:url(#Contour_866_);} .st361{fill:url(#Contour_867_);} .st362{fill:url(#Contour_868_);} .st363{fill:url(#Contour_869_);} .st364{fill:url(#Contour_870_);} .st365{fill:url(#Contour_871_);} .st366{fill:url(#Contour_872_);} .st367{fill:url(#Contour_873_);} .st368{fill:url(#Contour_874_);} .st369{fill:url(#Contour_875_);} .st370{fill:url(#Contour_876_);} .st371{fill:url(#Contour_877_);} .st372{fill:url(#Contour_878_);} .st373{fill:url(#Contour_879_);} .st374{fill:url(#Contour_880_);} .st375{fill:url(#Contour_881_);} .st376{fill:url(#Contour_882_);} .st377{fill:url(#Contour_883_);} .st378{fill:url(#Contour_884_);} .st379{fill:url(#Contour_885_);} .st380{fill:url(#Contour_886_);} .st381{fill:url(#Contour_887_);} .st382{fill:url(#Contour_888_);} .st383{fill:url(#Contour_889_);} .st384{fill:url(#Contour_890_);} .st385{fill:url(#Contour_891_);} .st386{fill:url(#Contour_892_);} .st387{fill:url(#Contour_893_);} .st388{fill:url(#Contour_894_);} .st389{fill:url(#Contour_895_);} .st390{fill:url(#Contour_896_);} .st391{fill:url(#Contour_897_);} .st392{fill:url(#Contour_898_);} .st393{fill:url(#Contour_899_);} .st394{fill:url(#Contour_900_);} .st395{fill:url(#Contour_901_);} .st396{fill:url(#Contour_902_);} .st397{fill:url(#Contour_903_);} .st398{fill:url(#Contour_904_);} .st399{fill:url(#Contour_905_);} .st400{fill:url(#Contour_906_);} .st401{fill:url(#Contour_907_);} .st402{fill:url(#Contour_908_);} .st403{fill:url(#Contour_909_);} .st404{fill:url(#Contour_910_);} .st405{fill:url(#Contour_911_);} .st406{fill:url(#Contour_912_);} .st407{fill:url(#Contour_913_);} .st408{fill:url(#Contour_914_);} .st409{fill:url(#Contour_915_);} .st410{fill:url(#Contour_916_);} .st411{fill:url(#Contour_917_);} .st412{fill:url(#Contour_918_);} .st413{fill:url(#Contour_919_);} .st414{fill:url(#Contour_920_);} .st415{fill:url(#Contour_921_);} .st416{fill:url(#Contour_922_);} .st417{fill:url(#Contour_923_);} .st418{fill:url(#Contour_924_);} .st419{fill:url(#Contour_925_);} .st420{fill:url(#Contour_926_);} .st421{fill:url(#Contour_927_);} .st422{fill:url(#Contour_928_);} .st423{fill:url(#Contour_929_);} .st424{fill:url(#Contour_930_);} .st425{fill:url(#Contour_931_);} .st426{fill:url(#Contour_932_);} .st427{fill:url(#SVGID_3_);} .st428{fill:url(#SVGID_4_);} .st429{fill:url(#SVGID_5_);} .st430{fill:url(#Contour_933_);} .st431{fill:url(#Contour_934_);} .st432{fill:url(#Contour_935_);} .st433{fill:url(#Contour_936_);} .st434{fill:url(#Contour_937_);} .st435{fill:url(#Contour_938_);} .st436{fill:url(#Contour_939_);} .st437{fill:url(#Contour_940_);} .st438{fill:url(#Contour_941_);} .st439{fill:url(#Contour_942_);} .st440{fill:url(#Contour_943_);} .st441{fill:url(#Contour_944_);} .st442{fill:url(#Contour_945_);} .st443{fill:url(#Contour_946_);} .st444{fill:url(#Contour_947_);} .st445{fill:url(#Contour_948_);} .st446{fill:url(#Contour_949_);} .st447{fill:url(#Contour_950_);} .st448{fill:url(#Contour_951_);} .st449{fill:url(#Contour_952_);} .st450{fill:url(#Contour_953_);} .st451{fill:url(#Contour_954_);} .st452{fill:url(#Contour_955_);} .st453{fill:url(#Contour_956_);} .st454{fill:url(#Contour_957_);} .st455{fill:url(#Contour_958_);} .st456{fill:url(#Contour_959_);} .st457{fill:url(#Contour_960_);} .st458{fill:url(#Contour_961_);} .st459{fill:url(#Contour_962_);} .st460{fill:url(#Contour_963_);} .st461{clip-path:url(#SVGID_7_);fill:#1E2D2F;} .st462{clip-path:url(#SVGID_9_);fill:#1E2D2F;} .st463{clip-path:url(#SVGID_11_);fill:#1E2D2F;} .st464{clip-path:url(#SVGID_13_);fill:#1E2D2F;} .st465{clip-path:url(#SVGID_15_);fill:#1E2D2F;} .st466{clip-path:url(#SVGID_17_);fill:#1E2D2F;} .st467{clip-path:url(#SVGID_19_);fill:#1E2D2F;} .st468{clip-path:url(#SVGID_21_);fill:#1E2D2F;} .st469{clip-path:url(#SVGID_23_);fill:#1E2D2F;} .st470{clip-path:url(#SVGID_25_);fill:#1E2D2F;} .st471{clip-path:url(#SVGID_27_);fill:#1E2D2F;} .st472{clip-path:url(#SVGID_29_);fill:#1E2D2F;} .st473{clip-path:url(#SVGID_31_);fill:#1E2D2F;} .st474{clip-path:url(#SVGID_33_);fill:#1E2D2F;} .st475{clip-path:url(#SVGID_35_);fill:#1E2D2F;} .st476{clip-path:url(#SVGID_37_);fill:#1E2D2F;} .st477{clip-path:url(#SVGID_39_);fill:#1E2D2F;} .st478{clip-path:url(#SVGID_41_);fill:#1E2D2F;} .st479{clip-path:url(#SVGID_43_);fill:#1E2D2F;} .st480{clip-path:url(#SVGID_45_);fill:#1E2D2F;} .st481{clip-path:url(#SVGID_47_);fill:#1E2D2F;} .st482{clip-path:url(#SVGID_49_);fill:#1E2D2F;} .st483{fill:url(#Contour_964_);} .st484{fill:url(#Contour_965_);} .st485{fill:url(#Contour_966_);} .st486{fill:url(#Contour_967_);} .st487{fill:url(#Contour_968_);} .st488{fill:url(#Contour_969_);} .st489{fill:url(#Contour_970_);} .st490{fill:url(#Contour_971_);} .st491{fill:url(#Contour_972_);} .st492{fill:url(#Contour_973_);} .st493{fill:url(#Contour_974_);} .st494{fill:url(#Contour_975_);} .st495{fill:url(#Contour_976_);} .st496{fill:url(#Contour_977_);} .st497{fill:url(#SVGID_50_);} .st498{fill:url(#SVGID_51_);} .st499{fill:#C8A26E;} </style> <g> <g> <g> <path id="Contour_550_" class="st276" d="M100.54,326.66V37.28c0-7.1,5.71-12.95,12.95-12.95v0.14h143.44 c7.1,0,12.95,5.71,12.95,12.95v289.24c0,7.1-5.71,12.95-12.95,12.95H113.49C106.39,339.61,100.54,333.9,100.54,326.66 L100.54,326.66z M113.49,19.59c-9.89,0-17.82,8.08-17.82,17.82v289.24c0,9.89,8.08,17.82,17.82,17.82h143.44 c9.89,0,17.83-7.94,17.83-17.69V37.42c0-9.89-8.08-17.82-17.83-17.82H113.49z"></path> <path id="Contour_548_" class="st276" d="M213.2,52.88c1.25,0,2.37-1.11,2.37-2.37v-6.55c0-4.6,4.87-8.22,9.33-8.49h23.26 c6.41,0,11.56,5.15,11.56,11.56v270.16c0,6.41-5.15,11.56-11.56,11.56H122.41c-6.41,0-11.56-5.15-11.56-11.56V47.03 c0-6.41,5.15-11.56,11.56-11.56h23.53c4.04,0.14,9.05,3.48,9.19,7.24v7.8c0,1.25,1.11,2.37,2.37,2.37H213.2z M224.76,30.74h-0.14 c-6.68,0.42-13.93,5.85-13.93,13.23v4.18h-50.83v-5.29c0-6.69-7.24-11.98-13.79-12.12h-23.67c-8.91,0-16.29,7.24-16.29,16.29 v270.16c0,8.91,7.24,16.29,16.29,16.29h125.75c9.05,0,16.29-7.38,16.29-16.29V47.03c0-8.91-7.24-16.29-16.29-16.29H224.76z"></path> <path id="Contour_547_" class="st276" d="M167.67,37.56c-1.25,0-2.23,0.97-2.23,2.23v0.83c0,1.25,0.97,2.23,2.23,2.23h35.37 c1.25,0,2.23-1.11,2.23-2.23v-0.83c0-1.25-0.97-2.23-2.23-2.23H167.67z"></path> <path id="Contour_545_" class="st276" d="M222.95,44.52c0,2,1.62,3.62,3.62,3.62s3.62-1.62,3.62-3.62c0-2-1.62-3.62-3.62-3.62 S222.95,42.52,222.95,44.52L222.95,44.52z"></path> </g> <g> <path id="Contour_1125_" class="st276" d="M277.74,182.41c-0.54,1.06-0.15,2.42,0.98,3.08l9.56,5.18 c0.62,0.3,1.55,0.29,2.17-0.03c0.37-0.19,0.8-0.57,0.91-0.94c0.54-1.06,0.15-2.42-0.98-3.08l-9.56-5.18 c-0.66-0.34-1.44-0.31-2.09,0.03C278.34,181.66,277.99,181.98,277.74,182.41L277.74,182.41z"></path> <path id="Contour_1124_" class="st276" d="M285.96,137.85c-0.04,1.43,1.09,2.4,2.33,2.38l23.17-0.18 c0.43-0.07,0.74-0.07,1.11-0.26c0.86-0.45,1.34-1.32,1.27-2.07c0.04-1.43-1.09-2.4-2.33-2.38l-23.17,0.18 c-0.46-0.01-0.88,0.08-1.22,0.26C286.41,136.14,285.99,136.89,285.96,137.85L285.96,137.85z"></path> <path id="Contour_1123_" class="st276" d="M249.55,75.08l-5.03,22.62c-0.17,1.3,0.63,2.5,1.84,2.78 c0.91,0.21,1.76-0.17,2.28-0.81c0.18-0.21,0.44-0.53,0.49-1.03l5.03-22.62c0.17-1.3-0.63-2.5-1.84-2.78 c-0.91-0.12-1.77,0.24-2.3,0.88C249.8,74.39,249.63,74.72,249.55,75.08L249.55,75.08z"></path> <path id="Contour_1122_" class="st276" d="M279.5,116.69c-1.23,0.64-1.58,2.07-1,3.18c0.64,1.23,2.07,1.58,3.18,1 c0,0,0.12-0.06,0,0l8.85-4.91c1.23-0.64,1.58-2.07,1-3.18c-0.64-1.23-2.07-1.58-3.18-1L279.5,116.69z"></path> <path id="Contour_1121_" class="st276" d="M216.47,77.16l2.83,10.55c0.33,1.23,1.64,1.96,2.88,1.63l0.49-0.26 c0.98-0.51,1.46-1.7,1.14-2.62l-2.83-10.55c-0.33-1.23-1.64-1.96-2.88-1.63c-0.16,0.04-0.31,0.1-0.45,0.18 C216.69,74.95,216.18,76.08,216.47,77.16L216.47,77.16z"></path> <path id="Contour_1102_" class="st276" d="M175.95,237.12l-11.76-22.62l8.48-4.41l11.76,22.62c0.51,0.98,0.1,2.29-0.89,2.8 l-4.79,2.49C177.77,238.51,176.46,238.1,175.95,237.12L175.95,237.12z M159.93,211.4c-1.11,0.57-1.58,2.07-1,3.17l12.85,24.71 c1.66,3.2,5.65,4.56,8.97,2.83l4.79-2.49c3.32-1.73,4.68-5.71,2.96-9.03l-12.85-24.71c-0.57-1.11-2.07-1.58-3.18-1L159.93,211.4z "></path> <path id="Contour_1097_" class="st276" d="M221.27,134.16c0.33,1.23,1.64,1.96,2.88,1.63c7.59-2.23,16.4,2.41,20.81,10.89 c4.41,8.48,3.14,18.36-3.16,23.35c-0.98,0.82-1.14,2.31-0.32,3.29c0.76,0.86,2,1.15,2.98,0.63c0.12-0.06,0.25-0.13,0.31-0.32 c7.96-6.32,9.81-18.68,4.38-29.13s-16.43-15.98-26.24-13.22c-0.16,0.04-0.31,0.1-0.45,0.18 C221.49,131.95,220.98,133.08,221.27,134.16L221.27,134.16z"></path> <path id="Contour_1094_" class="st276" d="M134.02,209.03l-3.13-6.02c-3.2-6.15-0.71-13.68,5.31-16.82l14.02-7.29l14.63,28.15 l-14.02,7.29C144.69,217.53,137.15,215.05,134.02,209.03L134.02,209.03z M134.22,182.07c-8.36,4.35-11.61,14.62-7.26,22.98 l3.13,6.02c4.35,8.36,14.62,11.61,22.98,7.26l18.07-9.39l-18.85-36.27L134.22,182.07z"></path> <path id="Contour_1093_" class="st276" d="M135,192.28c-0.98,0.51-1.34,1.63-0.83,2.62c0.51,0.98,1.63,1.34,2.62,0.83l13.52-7.03 c0.98-0.51,1.34-1.63,0.83-2.61c-0.51-0.98-1.63-1.34-2.61-0.83L135,192.28z"></path> <path id="Contour_1092_" class="st276" d="M138.83,199.65c-0.98,0.51-1.34,1.63-0.83,2.62c0.51,0.98,1.63,1.34,2.62,0.83 l13.52-7.03c0.98-0.51,1.27-1.76,0.82-2.62c-0.51-0.98-1.63-1.34-2.61-0.83L138.83,199.65z"></path> <path id="Contour_1091_" class="st276" d="M142.66,207.03c-0.98,0.51-1.34,1.63-0.83,2.62c0.51,0.98,1.63,1.34,2.62,0.83 l13.52-7.03c0.98-0.51,1.27-1.75,0.83-2.61c-0.51-0.98-1.63-1.34-2.61-0.83L142.66,207.03z"></path> <path id="Contour_1089_" class="st276" d="M205.91,122.93l36.68,70.56c-1.99-0.53-3.85-0.81-5.78-1.21 c-29.45-4.99-55.49,6.2-65.57,11.44l-2.34,1.21l-14.76-28.4c0.66-0.32,1.45-0.71,2.35-1.18 C167.3,169.75,193.92,153.38,205.91,122.93L205.91,122.93z M203.33,116.47c-12.58,39.49-52.77,56.79-53.14,56.98 c-0.68,0.2-1.17,0.76-1.34,1.32c-0.18,0.56-0.17,1.18,0.15,1.79l17.06,32.82c0.26,0.49,0.82,0.98,1.38,1.16 c0.68,0.11,1.24-0.02,1.85-0.34c0.25-0.13,31.36-19.27,66.78-13.32c3.54,0.5,6.96,1.38,10.32,2.44c0.56,0.18,1.3,0.1,1.8-0.15 l0.74-0.38c0.55-0.75,0.65-1.75,0.21-2.61l-41.6-80.03c-0.45-0.86-1.32-1.34-2.25-1.33c-0.27,0.04-0.54,0.13-0.79,0.26 C203.97,115.36,203.53,115.83,203.33,116.47L203.33,116.47z"></path> <path id="Contour_1087_" class="st276" d="M205.91,122.93l36.68,70.56c-1.99-0.53-3.85-0.81-5.78-1.21 c-29.45-4.99-55.49,6.2-65.57,11.44l-2.34,1.21l-14.76-28.4c0.66-0.32,1.45-0.71,2.35-1.18 C167.3,169.75,193.92,153.38,205.91,122.93L205.91,122.93z M203.33,116.47c-12.58,39.49-52.77,56.79-53.14,56.98 c-0.68,0.2-1.17,0.76-1.34,1.32c-0.18,0.56-0.17,1.18,0.15,1.79l17.06,32.82c0.26,0.49,0.82,0.98,1.38,1.16 c0.68,0.11,1.24-0.02,1.85-0.34c0.25-0.13,31.36-19.27,66.78-13.32c3.54,0.5,6.96,1.38,10.32,2.44c0.56,0.18,1.3,0.1,1.8-0.15 l0.74-0.38c0.55-0.75,0.65-1.75,0.21-2.61l-41.6-80.03c-0.45-0.86-1.32-1.34-2.25-1.33c-0.27,0.04-0.54,0.13-0.79,0.26 C203.97,115.36,203.53,115.83,203.33,116.47L203.33,116.47z"></path> </g> </g> <g> <g> <g id="Group_11_"> <path id="Contour_65_" class="st276" d="M228.44,313.08h9.8c1.31,0,2.5-1.09,2.5-2.5v-58.47c0-1.31-1.09-2.5-2.5-2.5h-9.8 c-1.31,0-2.5,1.09-2.5,2.5v58.58C225.93,312,227.02,313.08,228.44,313.08L228.44,313.08z"></path> <path id="Contour_64_" class="st276" d="M203.94,313.08h10.89c1.09,0,1.96-0.87,1.96-1.96v-44.86c0-1.09-0.87-1.96-1.96-1.96 h-10.89c-1.09,0-1.96,0.87-1.96,1.96v44.86C202.09,312.21,202.85,313.08,203.94,313.08L203.94,313.08z"></path> <path id="Contour_63_" class="st276" d="M180.2,313.08h10.67c1.09,0,2.07-0.87,2.07-2.07v-27.66c0-1.09-0.87-2.07-2.07-2.07 H180.2c-1.09,0-2.07,0.87-2.07,2.07v27.66C178.13,312.21,179,313.08,180.2,313.08L180.2,313.08z"></path> <path id="Contour_62_" class="st276" d="M155.81,313.08h11.43c0.87,0,1.63-0.76,1.63-1.63v-15.25c0-0.87-0.76-1.63-1.63-1.63 h-11.43c-0.87,0-1.63,0.76-1.63,1.63v15.25C154.17,312.32,154.94,313.08,155.81,313.08L155.81,313.08z"></path> <path id="Contour_61_" class="st276" d="M132.4,313.08h10.56c1.2,0,2.07-0.98,2.07-2.07v-2.94c0-1.2-0.98-2.07-2.07-2.07H132.4 c-1.2,0-2.07,0.98-2.07,2.07v2.94C130.22,312.1,131.2,313.08,132.4,313.08L132.4,313.08z"></path> </g> <path id="Contour_60_" class="st276" d="M221.47,239.15c0.65,0.54,0.76,1.63,0.11,2.29c-0.44,0.43-41.6,44.64-89.51,47.48 c0.11,0,0.11,0,0,0c-0.87,0-1.52-0.65-1.63-1.52c-0.11-0.87,0.65-1.74,1.53-1.74c46.5-2.72,86.79-45.95,87.22-46.39 c0.29-0.35,0.75-0.55,1.21-0.55C220.78,238.71,221.17,238.85,221.47,239.15L221.47,239.15z"></path> <path id="Contour_59_" class="st276" d="M224.52,236.43c0.33,0.44,0.44,0.87,0.33,1.42l-1.53,8.17 c-0.22,0.76-0.87,1.31-1.63,1.31h-0.22c-0.87-0.22-1.52-1.09-1.31-1.96l1.2-6.1l-5.99,0.33c-0.87,0.11-1.74-0.65-1.74-1.52 c-0.11-0.98,0.65-1.74,1.52-1.74l8.06-0.44C223.75,235.88,224.19,236.1,224.52,236.43L224.52,236.43z"></path> </g> </g> </g> </svg> 